<svg width="455" height="161" viewBox="0 0 455 161" fill="none" xmlns="http://www.w3.org/2000/svg">
<g clip-path="url(#clip0_10_33)">
<rect width="455" height="161" fill="white"/>
<path d="M37.32 65C64.84 65 78.6 77.8 78.6 103.4V194.6C78.6 220.2 64.84 233 37.32 233H0.600001V65H37.32ZM37.32 215.24C44.2 215.24 49.24 213.64 52.44 210.44C55.64 207.08 57.4 201.8 57.72 194.6V103.4C57.4 96.2 55.64 91 52.44 87.8C49.24 84.44 44.2 82.76 37.32 82.76H21.48V215.24H37.32ZM129.814 215.96C136.054 215.96 141.014 214.84 144.694 212.6C148.534 210.36 150.454 205.72 150.454 198.68H165.574C165.574 211.16 162.854 220.2 157.414 225.8C151.974 231.4 142.774 234.2 129.814 234.2C122.934 234.2 117.174 233.32 112.534 231.56C107.894 229.8 104.214 227.24 101.494 223.88C98.9338 220.52 97.0938 216.36 95.9738 211.4C94.8538 206.28 94.2938 200.44 94.2938 193.88V142.76C94.2938 129.64 97.0138 119.64 102.454 112.76C108.054 105.88 117.174 102.44 129.814 102.44C142.294 102.44 151.334 105.24 156.934 110.84C162.694 116.44 165.574 125.48 165.574 137.96V149C165.574 152.2 165.334 155 164.854 157.4C164.374 159.64 163.574 161.56 162.454 163.16C161.494 164.76 160.054 166.2 158.134 167.48C156.214 168.6 153.814 169.64 150.934 170.6L113.974 184.04V193.88C113.974 197.72 114.134 201.08 114.454 203.96C114.934 206.68 115.734 208.92 116.854 210.68C117.974 212.44 119.574 213.8 121.654 214.76C123.734 215.56 126.454 215.96 129.814 215.96ZM113.974 166.52L139.174 157.4C142.854 156.12 145.094 154.6 145.894 152.84C146.854 150.92 147.334 147.72 147.334 143.24V137.96C147.334 130.92 145.814 126.28 142.774 124.04C139.734 121.64 135.414 120.44 129.814 120.44C124.214 120.44 120.134 122.28 117.574 125.96C115.174 129.48 113.974 135.08 113.974 142.76V166.52ZM246.829 103.4L217.069 233.96H202.189L172.189 103.4H192.589L209.629 185.72L226.669 103.4H246.829ZM256.755 233V50.12H276.435V233H256.755ZM328.575 102.44C341.055 102.44 350.095 105.88 355.695 112.76C361.295 119.48 364.095 129.48 364.095 142.76V193.88C364.095 207.16 361.295 217.24 355.695 224.12C350.095 230.84 341.055 234.2 328.575 234.2C316.095 234.2 306.975 230.92 301.215 224.36C295.455 217.8 292.575 207.64 292.575 193.88V142.76C292.575 129 295.455 118.84 301.215 112.28C306.975 105.72 316.095 102.44 328.575 102.44ZM344.415 142.76C344.415 139.4 344.175 136.36 343.695 133.64C343.215 130.92 342.335 128.6 341.055 126.68C339.935 124.76 338.335 123.32 336.255 122.36C334.175 121.24 331.535 120.68 328.335 120.68C321.775 120.68 317.455 122.68 315.375 126.68C313.295 130.68 312.255 136.04 312.255 142.76V193.88C312.255 200.6 313.295 205.96 315.375 209.96C317.455 213.96 321.775 215.96 328.335 215.96C334.895 215.96 339.215 213.96 341.295 209.96C343.375 205.96 344.415 200.6 344.415 193.88V142.76ZM454.431 103.4V249.8C454.431 262.92 451.711 272.92 446.271 279.8C440.991 286.68 431.391 290.12 417.471 290.12C404.511 290.12 394.991 287.32 388.911 281.72C382.991 276.12 380.031 267.08 380.031 254.6H398.271C398.271 261.64 399.871 266.28 403.071 268.52C406.271 270.92 411.071 272.12 417.471 272.12C424.351 272.12 428.911 270.36 431.151 266.84C433.551 263.32 434.751 257.64 434.751 249.8V219.32C429.471 226.04 421.711 229.4 411.471 229.4C399.951 229.4 391.551 226.12 386.271 219.56C380.991 213 378.351 203.4 378.351 190.76V140.84C378.351 128.2 380.991 118.6 386.271 112.04C391.551 105.48 399.951 102.2 411.471 102.2C421.711 102.2 429.471 105.56 434.751 112.28V103.4H454.431ZM434.751 139.88C434.751 133.16 432.911 128.2 429.231 125C425.551 121.64 420.271 119.96 413.391 119.96C408.271 119.96 404.431 121.8 401.871 125.48C399.311 129 398.031 134.12 398.031 140.84V190.76C398.031 197.48 399.311 202.68 401.871 206.36C404.431 209.88 408.271 211.64 413.391 211.64C420.271 211.64 425.551 210.04 429.231 206.84C432.911 203.48 434.751 198.44 434.751 191.72V139.88Z" fill="url(#paint0_linear_10_33)"/>
</g>
<defs>
<linearGradient id="paint0_linear_10_33" x1="227.5" y1="52" x2="227.5" y2="236" gradientUnits="userSpaceOnUse">
<stop stop-color="#FFF5D4"/>
<stop offset="1" stop-color="white"/>
</linearGradient>
<clipPath id="clip0_10_33">
<rect width="455" height="161" fill="white"/>
</clipPath>
</defs>
</svg>
