<svg width="66" height="14" viewBox="0 0 66 14" fill="none" xmlns="http://www.w3.org/2000/svg">
<path d="M10.0066 5.3658C9.99793 5.43387 9.97195 5.49816 9.93145 5.55183L7.28213 9.16092C7.23299 9.22638 7.16496 9.27323 7.08815 9.2939C7.03761 9.30721 6.98475 9.30721 6.93421 9.2939C6.84797 9.27811 6.77017 9.22946 6.71549 9.15713L4.06617 5.55183C4.02049 5.49032 3.99388 5.41538 3.98997 5.33724C3.98607 5.25911 4.00507 5.18161 4.04437 5.11534L4.98367 3.56711L5.01231 3.52921C5.04566 3.48681 5.08733 3.45261 5.13443 3.42899C5.18154 3.40537 5.23294 3.3929 5.28506 3.39244H8.71224C8.73967 3.38847 8.76748 3.38847 8.79491 3.39244C8.88502 3.4149 8.96341 3.47343 9.01363 3.55574L9.95293 5.10397C10.0004 5.18141 10.0195 5.27451 10.0066 5.3658Z" fill="black" stroke="black" stroke-linecap="round" stroke-linejoin="round"/>
<path d="M7.71647 3.40384L8.22876 5.36582L7.08864 9.2898M6.93469 9.29393L5.62598 5.36582L6.28213 3.40384M3.99115 5.36582H10.0071Z" fill="black"/>
<path d="M7.71647 3.40384L8.22876 5.36582L7.08864 9.2898M6.93469 9.29393L5.62598 5.36582L6.28213 3.40384M3.99115 5.36582H10.0071" stroke="black" stroke-linecap="round" stroke-linejoin="round"/>
<path d="M12.9922 5.10033C12.9749 5.23216 12.9231 5.35668 12.8424 5.46063L7.5623 12.4504C7.46435 12.5772 7.32878 12.6679 7.1757 12.708C7.07496 12.7337 6.96962 12.7337 6.86888 12.708C6.69701 12.6774 6.54196 12.5832 6.43298 12.4431L1.15287 5.46063C1.06182 5.3415 1.00878 5.19635 1.001 5.04503C0.993218 4.8937 1.03108 4.7436 1.10941 4.61526L2.98145 1.61678L3.03853 1.54339C3.10498 1.46126 3.18804 1.39502 3.28192 1.34928C3.37579 1.30353 3.47823 1.27938 3.58211 1.2785H10.4125C10.4672 1.27081 10.5226 1.27081 10.5773 1.2785C10.7569 1.32199 10.9131 1.43534 11.0132 1.59477L12.8852 4.59325C12.9797 4.74323 13.0178 4.92354 12.9922 5.10033Z" stroke="black" stroke-width="1.6" stroke-linecap="round" stroke-linejoin="round"/>
<path d="M20.088 0.799999C21.9227 0.799999 22.84 1.65333 22.84 3.36V9.44C22.84 11.1467 21.9227 12 20.088 12H17.64V0.799999H20.088ZM20.088 10.816C20.5467 10.816 20.8827 10.7093 21.096 10.496C21.3093 10.272 21.4267 9.92 21.448 9.44V3.36C21.4267 2.88 21.3093 2.53333 21.096 2.32C20.8827 2.096 20.5467 1.984 20.088 1.984H19.032V10.816H20.088ZM28.4943 10.768V12H24.0463V0.799999H28.3343V2.032H25.4383V6.032H27.8223V7.264H25.4383V10.768H28.4943ZM34.8159 0.799999L32.2399 12.064H31.2479L28.6719 0.799999H30.1439L31.7439 8.048L33.3439 0.799999H34.8159ZM39.9161 10.768V12H35.4681V0.799999H36.8601V10.768H39.9161ZM42.9013 0.735999C43.7653 0.735999 44.4319 0.943999 44.9013 1.36C45.3706 1.776 45.6053 2.432 45.6053 3.328V9.472C45.6053 10.368 45.3653 11.0293 44.8853 11.456C44.4159 11.872 43.7546 12.0747 42.9013 12.064C42.1013 12.064 41.4719 11.8507 41.0133 11.424C40.5546 10.9867 40.3253 10.336 40.3253 9.472V3.328C40.3253 2.464 40.5546 1.81867 41.0133 1.392C41.4719 0.954666 42.1013 0.735999 42.9013 0.735999ZM42.9653 10.864C43.1253 10.864 43.2799 10.848 43.4293 10.816C43.5786 10.784 43.7066 10.72 43.8133 10.624C43.9306 10.5173 44.0213 10.3733 44.0853 10.192C44.1599 10.0107 44.2026 9.77067 44.2133 9.472V3.328C44.2026 3.02933 44.1599 2.78933 44.0853 2.608C44.0213 2.42667 43.9306 2.288 43.8133 2.192C43.6959 2.08533 43.5626 2.016 43.4133 1.984C43.2746 1.952 43.1253 1.936 42.9653 1.936C42.4959 1.936 42.1759 2.048 42.0053 2.272C41.8346 2.48533 41.7386 2.83733 41.7173 3.328V9.472C41.7386 9.96267 41.8346 10.32 42.0053 10.544C42.1759 10.7573 42.4959 10.864 42.9653 10.864ZM52.0439 6.08V9.472C52.0439 10.368 51.7985 11.0293 51.3079 11.456C50.8172 11.872 50.1452 12.0747 49.2919 12.064C48.4919 12.064 47.8625 11.8507 47.4039 11.424C46.9452 10.9867 46.7159 10.336 46.7159 9.472V3.328C46.7159 2.464 46.9452 1.81867 47.4039 1.392C47.8625 0.954666 48.4919 0.735999 49.2919 0.735999C50.1559 0.735999 50.8225 0.943999 51.2919 1.36C51.7612 1.776 51.9959 2.432 51.9959 3.328V3.92H50.6039V3.328C50.5932 3.02933 50.5505 2.78933 50.4759 2.608C50.4119 2.42667 50.3212 2.288 50.2039 2.192C50.0865 2.08533 49.9532 2.016 49.8039 1.984C49.6652 1.952 49.5159 1.936 49.3559 1.936C48.8865 1.936 48.5665 2.048 48.3959 2.272C48.2252 2.48533 48.1292 2.83733 48.1079 3.328V9.472C48.1292 9.96267 48.2252 10.32 48.3959 10.544C48.5665 10.7573 48.8865 10.864 49.3559 10.864C49.5159 10.864 49.6705 10.848 49.8199 10.816C49.9799 10.784 50.1185 10.72 50.2359 10.624C50.3532 10.5173 50.4492 10.3733 50.5239 10.192C50.5985 10.0107 50.6412 9.77067 50.6519 9.472V7.968C50.6519 7.69067 50.6092 7.50933 50.5239 7.424C50.4385 7.328 50.2785 7.28 50.0439 7.28H49.4999V6.08H52.0439ZM52.8836 12V10.688H54.1956V12H52.8836ZM56.4185 3.728C56.4185 4.05867 56.5092 4.336 56.6905 4.56C56.8825 4.784 57.1172 4.992 57.3945 5.184C57.6825 5.376 57.9865 5.57333 58.3065 5.776C58.6372 5.968 58.9412 6.208 59.2185 6.496C59.5065 6.77333 59.7412 7.12 59.9225 7.536C60.1145 7.94133 60.2105 8.45333 60.2105 9.072V9.472C60.2105 10.336 59.9812 10.9867 59.5225 11.424C59.0745 11.8507 58.4505 12.064 57.6505 12.064C56.7865 12.064 56.1145 11.856 55.6345 11.44C55.1652 11.024 54.9305 10.368 54.9305 9.472V8.368H56.3225V9.472C56.3332 9.77067 56.3705 10.0107 56.4345 10.192C56.5092 10.3733 56.6052 10.5173 56.7225 10.624C56.8398 10.72 56.9678 10.784 57.1065 10.816C57.2558 10.848 57.4105 10.864 57.5705 10.864C58.0398 10.864 58.3598 10.7573 58.5305 10.544C58.7012 10.32 58.7972 9.96267 58.8185 9.472V9.072C58.8185 8.57067 58.7225 8.16533 58.5305 7.856C58.3492 7.54667 58.1145 7.28533 57.8265 7.072C57.5492 6.848 57.2452 6.65067 56.9145 6.48C56.5945 6.30933 56.2905 6.112 56.0025 5.888C55.7252 5.65333 55.4905 5.37067 55.2985 5.04C55.1172 4.69867 55.0265 4.26133 55.0265 3.728V3.328C55.0265 2.464 55.2398 1.81867 55.6665 1.392C56.0932 0.954666 56.7065 0.735999 57.5065 0.735999C58.3705 0.735999 59.0212 0.943999 59.4585 1.36C59.8958 1.776 60.1145 2.432 60.1145 3.328V4.16H58.7225V3.328C58.7118 3.02933 58.6745 2.78933 58.6105 2.608C58.5572 2.42667 58.4772 2.288 58.3705 2.192C58.2745 2.08533 58.1572 2.016 58.0185 1.984C57.8798 1.952 57.7305 1.936 57.5705 1.936C57.3358 1.936 57.1438 1.96267 56.9945 2.016C56.8558 2.06933 56.7438 2.15467 56.6585 2.272C56.5732 2.37867 56.5145 2.52267 56.4825 2.704C56.4505 2.87467 56.4292 3.08267 56.4185 3.328V3.728ZM65.7938 2.032H63.8418V12H62.4498V2.032H60.4977V0.799999H65.7938V2.032Z" fill="black"/>
</svg>
