<svg width="21" height="21" viewBox="0 0 21 21" fill="none" xmlns="http://www.w3.org/2000/svg">
<path d="M16.9916 8.26708C16.9728 8.41405 16.9167 8.55287 16.8293 8.66875L11.1092 16.4611C11.003 16.6024 10.8562 16.7036 10.6903 16.7482C10.5812 16.7769 10.4671 16.7769 10.358 16.7482C10.1718 16.7141 10.0038 16.6091 9.88573 16.4529L4.16561 8.66875C4.06697 8.53595 4.00951 8.37412 4.00108 8.20543C3.99265 8.03673 4.03367 7.8694 4.11853 7.72632L6.14657 4.38355L6.20841 4.30173C6.2804 4.21018 6.37037 4.13633 6.47207 4.08533C6.57377 4.03433 6.68475 4.00741 6.79728 4.00643H14.1969C14.2561 3.99786 14.3162 3.99786 14.3754 4.00643C14.5699 4.05491 14.7392 4.18128 14.8476 4.35901L16.8757 7.70177C16.978 7.86898 17.0193 8.06999 16.9916 8.26708Z" fill="black" stroke="black" stroke-linecap="round" stroke-linejoin="round"/>
<path d="M12.0459 4.03101L13.152 8.26711L10.6904 16.7393M10.358 16.7482L7.53234 8.26711L8.94902 4.03101M4.00259 8.26711H16.9916Z" fill="black"/>
<path d="M12.0459 4.03101L13.152 8.26711L10.6904 16.7393M10.358 16.7482L7.53234 8.26711L8.94902 4.03101M4.00259 8.26711H16.9916" stroke="black" stroke-linecap="round" stroke-linejoin="round"/>
<path d="M19.9877 7.92401C19.9603 8.13274 19.8783 8.3299 19.7505 8.49448L11.3903 19.5616C11.2352 19.7624 11.0206 19.906 10.7782 19.9694C10.6187 20.0102 10.4519 20.0102 10.2924 19.9694C10.0203 19.921 9.77476 19.7718 9.60222 19.55L1.24204 8.49448C1.09788 8.30586 1.0139 8.07603 1.00158 7.83644C0.989262 7.59685 1.04921 7.35919 1.17323 7.15598L4.13729 2.40839L4.22767 2.29218C4.33289 2.16215 4.46439 2.05727 4.61303 1.98484C4.76167 1.9124 4.92387 1.87417 5.08834 1.87278H15.9032C15.9897 1.8606 16.0775 1.8606 16.164 1.87278C16.4484 1.94164 16.6957 2.12111 16.8542 2.37353L19.8183 7.12112C19.9679 7.3586 20.0282 7.64408 19.9877 7.92401Z" stroke="black" stroke-width="2" stroke-linecap="round" stroke-linejoin="round"/>
</svg>
